<?xml version="1.0" encoding="UTF-8" standalone="no"?>
<!-- Created with Inkscape (http://www.inkscape.org/) -->

<svg
   width="119.20916mm"
   height="143.00409mm"
   viewBox="0 0 119.20916 143.00409"
   version="1.1"
   id="svg1"
   inkscape:version="1.3.2 (091e20e, 2023-11-25, custom)"
   sodipodi:docname="bagworksparring.svg"
   xmlns:inkscape="http://www.inkscape.org/namespaces/inkscape"
   xmlns:sodipodi="http://sodipodi.sourceforge.net/DTD/sodipodi-0.dtd"
   xmlns="http://www.w3.org/2000/svg"
   xmlns:svg="http://www.w3.org/2000/svg">
  <sodipodi:namedview
     id="namedview1"
     pagecolor="#ffffff"
     bordercolor="#000000"
     borderopacity="0.25"
     inkscape:showpageshadow="2"
     inkscape:pageopacity="0.0"
     inkscape:pagecheckerboard="0"
     inkscape:deskcolor="#d1d1d1"
     inkscape:document-units="mm"
     inkscape:zoom="0.72426347"
     inkscape:cx="91.817416"
     inkscape:cy="264.40654"
     inkscape:window-width="1920"
     inkscape:window-height="1009"
     inkscape:window-x="-8"
     inkscape:window-y="-8"
     inkscape:window-maximized="1"
     inkscape:current-layer="layer2" />
  <defs
     id="defs1" />
  <g
     inkscape:groupmode="layer"
     id="layer2"
     inkscape:label="Lager 2"
     transform="translate(-55.316659,-77.249782)">
    <path
       style="display:inline;fill:#000000;fill-opacity:1;stroke:#f9f9f9;stroke-width:0.217363;stroke-opacity:0"
       d="m 67.129528,195.42541 c -0.226369,0.2486 -0.226369,0.2486 -0.226369,0.2486 l 0.89901,2.47927 5.960578,0.9913 1.39031,-1.57272 -1.44519,-4.14456 -4.353833,0.18502 z"
       id="path12" />
    <path
       id="path8"
       style="display:inline;fill:#4d4d4d;stroke:#f9f9f9;stroke-width:0.240106;stroke-opacity:0"
       d="m 66.988481,192.78231 -6.533969,8.22275 c -2.812776,1.13473 -4.117061,4.78214 -4.117061,4.78214 0,0 -0.326459,1.82366 0.121957,2.87734 0.0084,0.0198 0.01412,0.0387 0.02222,0.0584 0.0683,-0.69488 0.149805,-1.38812 0.262517,-2.0774 0.08768,-0.53623 0.286206,-1.62309 0.522448,-2.16524 0.170379,-0.391 0.410355,-0.74794 0.615467,-1.12189 0.06862,0.008 0.138137,0.0123 0.207222,0.0181 0.126237,-0.16087 0.271261,-0.29876 0.454236,-0.37982 0.682246,-0.30225 1.478609,-0.20189 2.217952,-0.30282 0.512546,0.47141 1.1242,0.85383 1.537374,1.41438 0.358647,0.48657 0.756438,1.79215 1.000456,2.67322 1.749306,-2.78737 3.972766,-5.91607 7.524089,-6.2084 0.137079,-0.0113 0.27632,-0.0101 0.414961,-0.0129 1.164723,-1.25983 1.918747,-2.21847 1.918747,-2.21847 2.13306,-0.97432 1.96009,-1.834 1.96009,-1.834 -0.74945,0.34388 -1.49914,-0.0568 -1.49914,-0.0568 l 1.67225,-2.06344 c -0.63415,-1.3755 -1.61437,-0.68782 -1.61437,-0.68782 0,0 -0.86471,3.95457 -2.478918,0.63046 -1.614205,-3.32413 -3.45922,0.80253 -3.45922,0.80253 z" />
    <path
       style="display:inline;fill:#000000;fill-opacity:0.995868;stroke:#f9f9f9;stroke-width:0.217363;stroke-opacity:0"
       d="m 120.70371,174.25865 5.34168,2.59035 c 0,0 2.34156,0.44408 5.52462,2.51636 3.18305,2.07228 3.10989,2.9974 3.10989,2.9974 0,0 -0.43905,1.77625 -1.90252,3.99656 -1.46347,2.22031 -1.46347,7.47503 -1.46347,7.47503 l 0.14634,1.77625 -0.95125,5.8468 c 0,0 0.76832,0.59208 4.02454,0.22204 l 1.71959,-2.66437 c 0,0 0.91467,-1.25818 1.82935,-0.81411 0.91466,0.44405 1.35371,-1.66524 1.35371,-1.66524 0,0 0.10977,-0.37004 0.5488,-0.59208 0.43905,-0.22203 2.19522,-4.92167 3.98798,-11.6196 1.79275,-6.69792 1.51282,-5.53401 1.51282,-5.53401 0,0 0.20697,-1.9625 -0.8796,-3.58483 -1.08658,-1.62232 -3.64779,-3.95114 -3.64779,-3.95114 l -3.77715,-4.36982 c 0,0 -2.04379,-0.157 -4.11346,1.04666 -2.06965,1.20367 -12.36408,6.32775 -12.36408,6.32775 z"
       id="path6" />
    <path
       style="display:inline;fill:#000000;fill-opacity:1;stroke:#f9f9f9;stroke-width:0.217363;stroke-opacity:0"
       d="m 130.51952,201.42411 -0.401,1.08591 5.20004,0.82424 3.60898,-4.85389 1.11244,-1.63542 0.0259,-1.42607 -8.21398,2.44657 z"
       id="path11" />
    <path
       style="display:inline;fill:#4d4d4d;stroke:#f9f9f9;stroke-width:0.217363;stroke-opacity:0.0247934"
       d="m 130.14312,201.53141 c 0,0 -1.02443,2.07229 -1.17077,4.66265 -0.14636,2.59035 -1.53665,6.66092 -1.53665,6.66092 0,0 -0.73175,1.07315 -0.69516,2.40533 0,0 -1.28054,2.84939 0.62198,4.62564 l 18.18368,0.25903 c 0,0 2.56108,-0.70309 0.87808,-2.9974 0,0 -0.95125,-0.77712 -2.41472,0 0,0 -0.18295,0.037 -1.39031,-0.96214 0,0 -1.02443,-0.74011 -2.52449,-0.92513 0,0 -0.40247,-0.74011 -1.53665,-1.59122 -1.1342,-0.85112 -1.93911,-1.25818 -1.93911,-1.25818 0,0 -0.0732,-0.96213 -0.76832,-1.33218 0,0 -0.25611,-2.77538 1.02442,-6.62392 0,0 0.43905,-0.14801 0.98785,0.14803 0.5488,0.29604 0.0732,-0.7401 0.0732,-0.7401 l -0.32929,-0.44407 c 0,0 -0.18294,-0.25903 -0.0732,-0.7401 0.10976,-0.48106 1.20737,-2.18331 1.20737,-2.18331 0,0 0.18293,-0.40704 0.32928,-0.99912 0.14635,-0.59209 0.76832,-0.77712 0.76832,-0.77712 0,0 0.36587,-0.25903 0.5854,-0.99913 0.21952,-0.74011 0.10975,-1.77625 0.10975,-1.77625 0,0 -0.29269,-0.37005 -0.76832,0.14803 -0.47563,0.51806 -0.51221,1.29517 -0.51221,1.29517 0,0 0.0732,0.7401 -0.73174,0.99913 l -0.5488,-0.111 -0.54881,-0.037 -0.62198,0.25904 -0.58538,0.70309 -0.76833,1.25818 -0.91468,1.40619 c 0,0 -1.20736,0.22203 -3.51233,-0.037 z"
       id="path9" />
    <path
       id="path35"
       style="display:inline;fill:#000000;fill-opacity:0.995868;stroke:#f9f9f9;stroke-width:0.217363;stroke-opacity:0"
       d="m 87.069427,175.19217 -0.75034,0.49712 -0.42685,0.83716 1.73323,1.2299 8.185026,2.0128 c -0.003,-0.24411 -0.01,-0.48814 -0.0129,-0.73226 -0.003,-0.14401 -0.008,-0.288 -0.0109,-0.43201 z" />
    <path
       id="path5"
       style="display:inline;fill:#4d4d4d;stroke:#f9f9f9;stroke-width:0.217363;stroke-opacity:0"
       d="m 105.26727,143.77341 c 0.2688,11.67837 0.60091,23.35568 0.86042,35.03404 0.0182,1.37891 0.049,2.75741 0.0718,4.13618 0.40089,0.17876 0.76278,0.33412 1.18752,0.52865 l 5.41466,-8.80721 4.7563,5.99498 c 0,0 2.89102,-0.666 8.4155,-3.84834 l -5.19348,-2.52336 12.3145,-6.27972 c 0,0 1.29391,-1.09878 4.24315,-1.04645 l -1.91461,-2.61638 c 0,0 -0.46578,-0.36662 -1.13844,-0.47129 -0.67263,-0.10467 -6.36395,-5.96604 -6.36395,-5.96604 0,0 -0.25879,-0.96805 -1.16427,-1.20355 -0.80864,-0.21032 -1.22719,-0.22655 -1.32033,-0.22892 -0.005,0.003 -0.0117,0.004 -0.017,0.005 -0.0136,0.002 -0.0273,0.002 -0.0408,0.002 -0.0157,4.4e-4 -0.0313,1.6e-4 -0.047,-0.002 -0.0179,-0.003 -0.0358,-0.007 -0.0532,-0.0124 -0.0211,-0.005 -0.0417,-0.011 -0.0625,-0.0171 -0.0253,-0.008 -0.0504,-0.0162 -0.0755,-0.0248 -0.0306,-0.01 -0.0607,-0.0221 -0.0909,-0.0336 -0.0359,-0.014 -0.0714,-0.0291 -0.10593,-0.046 -0.0427,-0.0201 -0.085,-0.0406 -0.12713,-0.062 -0.0422,-0.0221 -0.0838,-0.0453 -0.12506,-0.0692 -0.0402,-0.0224 -0.0785,-0.0471 -0.11472,-0.0754 -0.0302,-0.0225 -0.0584,-0.0484 -0.0842,-0.076 -0.0214,-0.0223 -0.0386,-0.0477 -0.0548,-0.0739 -0.0163,-0.0262 -0.0281,-0.0546 -0.0393,-0.0832 -0.0127,-0.0358 -0.0237,-0.0717 -0.0331,-0.10852 -0.0107,-0.0352 -0.0174,-0.0716 -0.0217,-0.108 -0.003,-0.0184 -0.004,-0.0369 -0.004,-0.0553 -0.0551,-0.46508 0.0367,-1.38958 0.0367,-1.38958 0,0 -0.12909,-0.60133 -0.62064,-0.86299 -0.49149,-0.26167 -2.71714,-1.25626 -2.71714,-1.25626 0,0 -5.62888,-4.81204 -15.77062,-8.35298 z m -10.099633,10.07587 c -1.0644,1.8785 -2.47085,4.67878 -4.61057,10.63915 -3.74744,10.43883 -4.341,11.47205 -4.43745,11.53986 0.0724,-0.0244 1.69433,-0.55169 3.33984,0.9679 0.86305,0.79699 3.7395,1.70737 6.344316,2.40864 -0.002,-0.12266 -0.005,-0.24528 -0.006,-0.36794 -0.18654,-8.39619 -0.41587,-16.79178 -0.629936,-25.18761 z m 30.155773,2.52646 0.001,0.001 c 6.5e-4,-9e-5 8.8e-4,-2.7e-4 0.002,-5.2e-4 -8.2e-4,-2.1e-4 -0.002,-2.7e-4 -0.003,-5.2e-4 z" />
    <path
       id="path2"
       style="display:inline;fill:#4d4d4d;fill-opacity:1;stroke:#f9f9f9;stroke-width:0.217363;stroke-opacity:0"
       d="m 94.563027,122.53027 c -0.51666,0.18304 -1.13713,0.45206 -1.64693,0.82785 -1.07931,0.7956 -1.28086,1.40632 -1.48208,2.29444 0,0 -0.93255,1.22126 -1.40818,3.23804 0,0 -0.20154,0.7027 -0.20154,1.53531 0,0.83263 0.2744,1.36942 0.2744,1.36942 l -0.0729,1.55391 0.38395,2.31304 c 0,0 0.27461,0.83273 1.26246,1.62832 0.98785,0.79562 2.2133,1.46141 2.2133,1.46141 l 0.94413,0.39223 c -0.11649,-5.53753 -0.20936,-11.07547 -0.26665,-16.61397 z" />
    <path
       id="path16"
       style="display:inline;fill:#000000;fill-opacity:1;stroke:#f9f9f9;stroke-width:0.217363;stroke-opacity:0"
       d="m 114.00834,135.84728 -8.91522,0.0703 c 0.0131,0.66804 0.0307,1.33599 0.0445,2.00401 l 16.77365,9.61957 2.05,0.0977 0.73743,-1.53066 z" />
    <path
       id="path1"
       style="display:inline;fill:#000000;stroke:#f9f9f9;stroke-width:0.217363;stroke-opacity:0"
       d="m 137.02503,95.325718 c -0.24125,0.01041 -0.36949,0.03824 -0.36949,0.03824 0,0 -3.58553,0.222054 -5.12217,3.034435 -1.53665,2.812397 -2.19521,6.734487 -2.19521,6.734487 0,0 -1.09761,5.77295 -4.39043,5.99498 -3.29281,0.22202 -6.21978,-0.37 -6.21978,-0.37 0,0 -3.58541,-2.6643 -6.36602,-1.40612 -2.78061,1.25817 -4.61005,3.99666 -4.61005,3.99666 0,0 -1.18099,1.35384 -2.89285,2.89129 v 3.63131 c 0.0166,2.01039 0.0573,4.02041 0.0837,6.03064 2.4248,-0.92583 3.39462,-1.7477 3.39462,-1.7477 0,0 -1.09781,3.70021 -1.53686,6.29057 -0.43903,2.59035 -0.51212,2.36836 -1.24385,3.70055 -0.26897,0.48967 -0.27659,0.48308 -0.48421,0.84336 0.01,0.51542 0.0244,1.03075 0.0346,1.54616 6.0197,0.77184 12.92996,5.07256 12.92996,5.07256 0,0 4.55333,2.90494 5.27771,4.08244 0.72438,1.17749 0.82837,1.99936 0.82837,1.99936 l 2.01228,-3.51555 1.40819,-2.18333 1.22576,-1.01751 1.29915,-1.18391 1.68258,-1.38803 2.71973,-2.89026 1.39682,-1.20354 2.56108,-1.88413 -0.77566,-0.68006 c 1.29355,-0.0785 3.1042,-1.0728 3.1042,-1.0728 l 0.69867,0.52297 3.06441,3.10058 c 0,0 3.58509,2.51631 5.06687,2.73834 1.48177,0.22203 2.89059,0.74012 4.46381,1.33221 1.57324,0.59208 1.6831,0.85111 1.6831,0.85111 1.35372,0.33304 2.08515,-0.55552 2.08515,-0.55552 0,0 0.6222,-1.07307 3.18327,-3.77444 2.56108,-2.70137 3.95118,-4.81056 3.95118,-4.81056 0,0 -1.90253,-0.96225 -3.29283,-2.29444 -1.3903,-1.33217 -0.8046,-2.66443 -0.8046,-2.66443 l -4.90254,4.88497 c -2.70743,-0.14803 -2.70785,-1.40612 -2.70785,-1.40612 -1.60982,-3.92253 -4.90254,-3.92275 -4.90254,-3.92275 l -1.53634,-2.29444 c -2.48791,-2.66435 -2.04908,-2.29417 -4.46381,-3.47834 -2.41474,-1.18416 -4.90254,-0.14779 -4.90254,-0.14779 l -2.19522,-2.29444 0.80461,-1.85053 c 2.12203,1.18416 2.85408,0.66611 2.85408,0.66611 1.09761,-2.51634 4.4633,-4.14445 4.4633,-4.14445 0.2927,-0.81411 0.14676,-1.70222 0.14676,-1.70222 l 1.02423,-1.33222 c 0,0 0.87818,-2.51634 0.58549,-4.07055 -0.29273,-1.55421 -0.0734,-2.59003 -0.0734,-2.59003 0,0 -0.073,-2.516707 -3.21944,-4.514972 -2.35986,-1.498701 -4.10233,-1.623371 -4.82606,-1.592151 z" />
    <path
       id="path4"
       style="display:inline;fill:#999999;stroke:#f9f9f9;stroke-width:0.217363;stroke-opacity:0"
       d="m 105.10501,136.44208 c 0.049,2.47384 0.1068,4.94754 0.16381,7.42125 10.11183,3.55226 15.87397,8.41447 15.87397,8.41447 0,0 0.80482,-1.59159 1.79266,-2.62774 0.98784,-1.03614 1.17098,-2.33113 1.17098,-2.33113 -4.38466,-7.23063 -16.01387,-10.21557 -19.00142,-10.87685 z" />
    <path
       id="path7"
       style="display:inline;fill:#000000;stroke:#f9f9f9;stroke-width:0.217363;stroke-opacity:0"
       d="m 86.319087,175.85931 -2.69028,4.02973 c 0,0 -0.46578,0.94217 -2.38021,1.67483 -1.91445,0.73267 -3.10472,1.09864 -3.10472,1.09864 0,0 -2.22452,0.9943 -3.56981,3.29696 -1.34528,2.30266 -4.398184,5.33817 -4.398184,5.33817 l -3.053044,4.13412 0.466122,1.62264 c 0,0 1.965756,-3.45428 3.207556,-0.47129 0,0 1.086941,1.93667 1.759582,0.262 0.672638,-1.67465 1.293458,-0.73277 1.293458,-0.73277 l 0.51728,0.62787 -1.50068,1.77922 c 0,0 0.62121,0.26176 1.39733,-0.0522 0.77613,-0.314 5.38107,-3.97702 5.38107,-3.97702 l 2.58692,-2.82618 5.795,-3.82044 c 0,0 2.12143,-1.41297 2.84582,-3.29696 0,0 2.61154,-1.57613 4.945946,-4.33461 -0.003,-0.21569 -0.008,-0.43131 -0.0114,-0.64699 -0.826976,-0.22159 -2.634466,-0.75016 -3.951176,-1.45521 -1.75921,-0.94199 -1.81111,-0.83755 -3.98425,-2.04122 z" />
    <path
       style="display:inline;fill:#4d4d4d;fill-opacity:1;stroke:#f9f9f9;stroke-width:0.217363;stroke-opacity:0"
       d="m 164.96653,130.06788 c 0,0 -4.9672,-2.17181 -4.11346,-4.97164 0,0 1.11244,-1.36066 2.01792,-2.93065 0.90548,-1.57 1.37116,-2.72132 1.37116,-2.72132 l 0.36218,-0.86351 0.1035,-0.26166 0.0517,-0.52333 c 0,0 0.0517,-0.41867 -0.10349,-1.0205 -0.15522,-0.60183 -0.31044,-0.91582 -0.31044,-0.91582 0,0 -0.0259,-0.28784 0.12935,-0.60183 0.15522,-0.314 0.90548,-0.34017 0.90548,-0.34017 v -0.44483 c 0,0 -0.6209,0.157 -1.34528,-0.471 -0.72439,-0.628 -0.62091,-2.35499 -0.62091,-2.35499 0,0 -0.0258,-0.83733 0.18111,-2.45966 0.20696,-1.62233 2.31141,-3.86884 2.31141,-3.86884 0,0 0.91468,-1.07314 2.92695,-0.94362 2.01228,0.12952 2.67085,0.7031 2.67085,0.7031 0,0 1.20737,0.37004 2.39644,2.9234 1.18907,2.55335 -0.0549,7.91909 -0.0549,7.91909 0,0 -0.38417,2.07228 -1.73788,4.53312 -1.35371,2.46085 -3.14647,3.88554 -4.4636,8.62219 0,0 -0.78662,1.14716 -2.15863,1.33219"
       id="path10" />
    <path
       style="display:inline;fill:#000000;fill-opacity:1;stroke:#f9f9f9;stroke-width:0.217363;stroke-opacity:0"
       d="m 138.41012,132.4425 c 0,0 0.76319,-0.51678 2.10847,-1.68775 1.34529,-1.17094 -2.30897,-0.0328 -2.30897,-0.0328 l -1.20946,1.34758 z"
       id="path17" />
  </g>
  <g
     inkscape:label="Lager 1"
     inkscape:groupmode="layer"
     id="layer1"
     transform="matrix(1,0,0,0.7942823,-56.4126,-38.199425)"
     style="display:inline">
    <path
       id="path51"
       style="display:inline;fill:#000000;stroke-width:0.264583"
       d="m 80.249027,93.305089 c -2.88815,0.0234 -5.77588,0.24386 -8.631499,0.63511 -4.919,0.67733 -9.759242,1.87865 -14.458542,3.476787 -0.0691,0.0558 -0.13475,0.11586 -0.19689,0.17931 -0.0108,0.0337 -0.0229,0.0675 -0.0351,0.0992 -0.003,0.009 -0.007,0.0172 -0.01,0.0258 -0.0313,0.14104 -0.0474,0.285 -0.0548,0.42944 0.091,1.686085 0.27222,3.372724 0.70797,5.005884 0.0351,0.30096 -0.0595,0.60785 -0.10852,0.90589 -0.14355,0.72217 -0.38903,1.418 -0.59325,2.12338 -0.24691,1.22358 -0.28409,2.47717 -0.35088,3.72019 -0.10818,2.76484 -0.12502,5.53324 -0.0853,8.29974 0.16962,8.11919 0.34474,16.23895 0.51108,24.3582 0.1709,14.29994 0.34496,28.60047 0.51366,42.90022 v 30.39815 c 0.003,0.0201 0.004,0.0404 0.007,0.0605 0.0219,0.17119 0.0511,0.34118 0.0811,0.51108 0.0358,0.17253 0.0744,0.34481 0.11937,0.51521 0.0442,0.16479 0.0998,0.32514 0.16743,0.48163 0.0657,0.15788 0.16237,0.29892 0.26149,0.43718 0.01,0.0137 0.0212,0.026 0.0315,0.0393 0.15466,0.12721 0.30802,0.25386 0.49196,0.34158 0.1903,0.10243 0.37754,0.21 0.57154,0.3054 0.17793,0.0916 0.35852,0.17805 0.54364,0.25425 0.18705,0.083 0.37395,0.16665 0.5643,0.24185 0.2497,0.0998 0.49867,0.20145 0.74001,0.32039 0.15413,0.0744 0.3073,0.15085 0.45992,0.22841 1.15558,0.42345 2.32584,0.80751 3.50469,1.15704 8.240131,2.40008 17.076221,3.01333 25.498681,1.21129 3.33534,-0.70973 6.573316,-1.83176 9.665043,-3.26956 0.16817,-0.12493 0.33085,-0.25724 0.48937,-0.3943 0.18267,-0.15775 0.35658,-0.32549 0.51573,-0.50694 0.0983,-0.11982 0.18726,-0.24719 0.2651,-0.38137 0.0443,-0.11004 0.0871,-0.22087 0.13023,-0.33125 0.0729,-0.1944 0.13772,-0.39158 0.20309,-0.58859 0.003,-0.0261 0.007,-0.0519 0.009,-0.078 0.0194,-0.22192 0.0247,-0.44389 0.0227,-0.66662 0.002,-0.16699 0.006,-0.33404 0.016,-0.50075 0.012,-0.1737 0.0293,-0.3469 0.0537,-0.51934 0.01,-0.0853 0.022,-0.17025 0.0341,-0.25529 0.16738,-22.49662 0.18939,-44.99605 -0.005,-67.49252 -0.1219,-12.49729 -0.29305,-24.99627 -0.67955,-37.48865 l -0.50822,-11.889294 c -0.0238,-0.0603 -0.0493,-0.12023 -0.0708,-0.18139 -0.0378,-0.0977 -0.0847,-0.19051 -0.13488,-0.28215 -0.0343,-0.0633 -0.0733,-0.12354 -0.11575,-0.18138 -1.872477,-0.861957 -3.849517,-1.480357 -5.840463,-2.001947 -4.66996,-1.18296 -9.48481,-1.69211 -14.29835,-1.65313 z" />
    <path
       id="path52"
       style="display:inline;fill:#000000;stroke-width:0.264583"
       d="m 78.027057,219.09443 -0.97048,7.43934 c -7e-5,0.11234 10e-6,0.22457 0,0.33693 -6.3e-4,0.0138 6.3e-4,0.0276 5.2e-4,0.0413 0.0196,0.0913 0.0482,0.18046 0.077,0.26924 0.002,0.006 0.005,0.0113 0.007,0.017 0.0233,0.0186 0.0476,0.0359 0.0744,0.0512 0.0909,0.0503 0.18355,0.0946 0.28836,0.10594 0.13473,0.026 0.27015,0.0513 0.40411,0.0811 0.0225,0.004 0.0451,0.008 0.0677,0.0124 l 2.89905,-0.13177 c 0.009,-0.0334 0.0185,-0.0665 0.0279,-0.0997 -0.18801,-0.43424 -0.81324,-2.41367 0.77773,-7.02748 z" />
    <path
       id="path53"
       style="display:inline;fill:#000000;stroke-width:0.264583"
       d="m 78.923127,66.672738 c -0.18616,0.0106 -0.37215,0.0227 -0.5581,0.0372 -0.23256,0.0178 -0.46547,0.0354 -0.69867,0.0424 -0.17752,0.007 -0.3548,0.01 -0.53227,0.0176 -0.12743,0.008 -0.25484,0.0195 -0.38033,0.0439 -0.0844,0.0169 -0.16968,0.0325 -0.24908,0.0672 -0.0519,0.0247 -0.10095,0.0555 -0.14625,0.0909 -0.0598,0.0464 -0.11975,0.0928 -0.17725,0.14211 -0.0255,0.024 -0.05,0.0489 -0.0739,0.0744 -2.03089,4.81503 -7.395409,13.99966 -7.395409,13.99966 -0.91093,2.31237 -2.43952,5.12964 -3.978566,7.73131 z m -14.189825,22.2467 -4.97179,7.794871 c 0,0 2.499032,-3.6148 4.97179,-7.794871 z" />
    <path
       style="display:inline;fill:#000000;stroke-width:0.264583"
       d="m 60.126749,96.531459 2.374538,0.730627 c 0,0 1.826569,-7.306278 8.402211,-18.083028"
       id="path54" />
    <path
       id="path55"
       style="display:inline;fill:#000000;stroke-width:0.264583"
       d="m 77.844647,69.133048 -7.671879,26.119861 h 4.566639 l 4.49326,-21.692741 c 1.3e-4,-0.0148 4.5e-4,-0.0296 5.2e-4,-0.0444 -0.001,-0.0193 7e-5,-0.0387 0.002,-0.0579 0.001,-0.0165 0.002,-0.0327 0.004,-0.0491 0.004,-0.0139 0.008,-0.0293 0.0181,-0.0398 0.003,-0.003 0.007,-0.006 0.0103,-0.009 0.003,-10e-4 0.005,-0.003 0.008,-0.004 l 0.7612,-3.67523 z" />
    <path
       id="path56"
       style="display:inline;fill:#000000;stroke-width:0.264583"
       d="m 80.401597,70.776878 -1.82677,0.18242 0.67748,2.41639 c 0.002,-0.002 0.003,-0.005 0.005,-0.007 0.003,-0.003 0.007,-0.006 0.0103,-0.009 0.004,-0.002 0.007,-0.004 0.0114,-0.005 0.003,-8e-4 0.006,-8.7e-4 0.009,-10e-4 0.02,-0.001 0.0331,0.0124 0.0434,0.0295 0.009,0.0203 0.012,0.0428 0.016,0.0646 0.005,0.0293 0.009,0.0584 0.0134,0.0879 0.004,0.0357 0.01,0.0711 0.0155,0.10645 0.006,0.0342 0.0131,0.0677 0.0191,0.1018 0.006,0.0361 0.0142,0.0722 0.0222,0.10801 0.0109,0.0466 0.013,0.0945 0.016,0.14211 9.2e-4,0.0131 0.001,0.0262 0.002,0.0393 l 5.89731,21.036441 5.29684,1.09606 z m -1.1002,2.62775 c -6.5e-4,6.1e-4 -0.002,0.002 -0.002,0.003 h 5.1e-4 c 10e-4,-0.002 0.002,-0.002 0.002,-0.003 z m -0.01,0.0548 c -8e-5,10e-4 7e-5,0.002 0,0.004 -1.4e-4,0.002 -4e-4,0.003 -5.2e-4,0.005 0.001,0.007 0.003,0.0132 0.004,0.0196 0.002,0.005 0.002,0.009 0.003,0.0139 -0.002,-0.014 -0.005,-0.028 -0.007,-0.0419 z" />
    <path
       id="path57"
       style="display:inline;fill:#000000;stroke-width:0.264583"
       d="m 82.045417,68.767698 -1.46089,0.36535 c 6.24654,9.79191 6.09711,9.75396 6.03839,9.69192 0.0102,0.0204 0.0215,0.0405 0.0305,0.0615 0.0279,0.0533 0.0582,0.10472 0.0894,0.15606 0.0432,0.0583 0.0809,0.11994 0.11524,0.18397 0.0306,0.0694 0.0656,0.13622 0.10025,0.2036 0.0296,0.0642 0.0617,0.12644 0.0987,0.18656 0.0407,0.0734 0.0816,0.14673 0.12041,0.22117 0.0457,0.0873 0.0852,0.17754 0.12712,0.26665 0.0477,0.0994 0.0802,0.20504 0.12041,0.30748 0.0189,0.0542 0.0341,0.10957 0.0512,0.16433 0.0289,0.0505 0.0585,0.10083 0.0873,0.15141 0.14616,0.27432 0.28278,0.55336 0.41186,0.83612 0.1229,0.26511 0.25462,0.52618 0.37672,0.79169 0.0983,0.21519 0.20251,0.42933 0.27131,0.65629 0.0521,0.16113 0.0931,0.32523 0.13229,0.48989 0.032,0.13078 0.0651,0.26108 0.0977,0.39171 0.001,0.004 0.002,0.008 0.004,0.0124 0.032,0.0623 0.0636,0.12482 0.0935,0.1881 0.0463,0.111 0.10923,0.21291 0.17053,0.31574 0.0692,0.12501 0.1146,0.26052 0.1602,0.39533 0.0444,0.13641 0.0819,0.27504 0.1111,0.41547 0.97046,2.2151 2.12453,4.84279 4.3434,9.849531 l 5.296836,3.470587 C 91.973067,88.374378 90.281117,84.471538 89.868077,83.205058 c -0.0586,-0.0784 -0.11102,-0.15958 -0.15348,-0.24856 -0.0431,-0.10733 -0.091,-0.21256 -0.1328,-0.32039 -0.003,-0.007 -0.006,-0.0148 -0.009,-0.0222 -0.0414,-0.0729 -0.084,-0.14529 -0.12454,-0.21859 -0.0501,-0.0919 -0.0948,-0.18665 -0.13642,-0.28267 -0.022,-0.0642 -0.0423,-0.12862 -0.0656,-0.19224 -4.63044,-7.16833 -7.20008,-13.15269 -7.20008,-13.15269 z" />
    <path
       id="path58"
       style="display:inline;fill:#000000;stroke-width:0.264583"
       d="m 79.945807,66.672218 0.2961,2.6231 1.43196,1.2392 0.32298,-1.67897 -0.69143,-1.85002 c -0.0376,-0.0354 -0.0771,-0.0686 -0.11834,-0.0997 -0.0579,-0.0449 -0.12827,-0.0668 -0.19637,-0.091 -0.0773,-0.0257 -0.15762,-0.0402 -0.23772,-0.0543 -0.11432,-0.0216 -0.23017,-0.035 -0.34571,-0.0481 -0.10256,-0.0126 -0.20501,-0.0267 -0.30748,-0.0393 -0.0513,-2.9e-4 -0.10266,-7.5e-4 -0.15399,-0.001 z m 0.2961,2.6231 -0.24701,-0.21394 0.41961,1.74356 z" />
    <path
       id="path59"
       style="display:inline;fill:#000000;stroke-width:0.264583"
       d="m 79.044567,66.665498 c -0.22676,0.0115 -0.45315,0.0268 -0.67954,0.0444 -0.23256,0.0178 -0.46547,0.0354 -0.69867,0.0424 -0.17752,0.007 -0.3548,0.01 -0.53227,0.0176 -0.068,0.004 -0.13586,0.01 -0.2036,0.0176 l 0.56172,2.00867 -2.11511,2.86855 2.15542,-2.72334 0.20205,0.7214 0.0832,0.092 0.72399,2.68459 0.93328,-0.85163 0.39067,0.43202 0.5488,-1.1622 -0.24132,-4.17546 c -0.0253,-0.003 -0.0506,-0.006 -0.076,-0.009 -0.35089,-0.002 -0.70176,-0.005 -1.05265,-0.007 z" />
    <path
       id="path60"
       style="display:inline;fill:#501616;stroke-width:0.264583"
       d="m 79.892577,66.671708 0.3607,0.1173 0.0243,-0.0935 c -0.0599,-0.008 -0.1199,-0.0154 -0.17983,-0.0227 -0.0684,-3.5e-4 -0.13678,-6.1e-4 -0.20516,-0.001 z" />
    <path
       style="display:inline;fill:#000000;stroke-width:0.264583"
       d="m 60.537726,95.572509 c -1.689576,2.602857 -1.689576,2.602857 -1.689576,2.602857 l 2.785518,0.77629 0.228322,-3.653127 7.214948,-13.151301 -0.6393,-0.0913 -6.895299,13.653601"
       id="path98" />
    <path
       style="display:inline;fill:#000000;stroke-width:0.264583"
       d="m 60.766049,96.120479 -0.958948,0.41098 c 0,0 5.125807,-7.637341 5.959177,-9.349751 l 0.2854,0.37673 -5.833599,9.338328 -0.353898,-0.365307 4.132611,-6.438651 1.940726,-3.17367 0.17124,0.61647 z"
       id="path99" />
    <path
       style="display:inline;fill:#000000;stroke-width:0.264583"
       d="m 82.222687,69.194438 -0.79109,-1.88894 -0.43591,0.67808 0.96868,1.87279 z"
       id="path140" />
    <path
       style="display:inline;fill:#666666;stroke-width:0.264583"
       d="m 76.017887,67.489018 c 0.86762,-4.72624 0.86762,-4.72624 0.86762,-4.72624"
       id="path147" />
    <path
       id="path149"
       style="display:inline;fill:#4d4d4d;stroke-width:0.264583"
       d="m 77.836887,58.871148 c -0.0406,0.003 -0.0835,0.0131 -0.12919,0.0331 -0.36535,0.15982 -0.45682,0.47955 -0.45682,0.47955 -0.22845,1.12312 -0.27991,2.59256 -0.29145,3.07217 10e-4,0.007 0.002,0.0144 0.003,0.0217 0,0.008 -0.001,0.0167 -0.004,0.0248 0,1.8e-4 1e-5,3.3e-4 0,5.2e-4 -0.001,0.06 -0.004,0.16846 -0.004,0.16846 0,0 1.324,2.83097 1.18701,0.79892 -0.0177,-0.2623 -0.0299,-0.49571 -0.0377,-0.70694 -0.004,-0.025 -0.007,-0.0501 -0.007,-0.0755 -1e-5,-0.0266 -9.5e-4,-0.0534 -0.001,-0.0801 -1e-4,-0.0222 4.1e-4,-0.0439 0,-0.0661 -0.001,-0.0208 -0.001,-0.0418 -0.003,-0.0625 -0.002,-0.0175 -0.004,-0.0351 -0.005,-0.0527 -0.001,-0.0169 -0.004,-0.0336 -0.003,-0.0506 0,-0.0158 10e-4,-0.0318 0.002,-0.0475 0.001,-0.0123 0.003,-0.0243 0.007,-0.0357 -0.006,-1.04529 0.12557,-1.40132 0.23047,-1.99574 0.13696,-0.77629 -0.046,-1.09606 -0.046,-1.09606 0,0 -0.15726,-0.34936 -0.44132,-0.32969 z" />
    <path
       id="path150"
       style="display:inline;fill:#4d4d4d;stroke-width:0.264583"
       d="m 77.867377,58.972428 0.45321,0.77412 -0.0651,-0.0207 c 0.36531,1.02744 0.31936,1.233 0.31936,1.233 l -0.0553,2.27686 c 10e-4,0.0156 0.002,0.0309 0.002,0.0465 2.4e-4,0.0152 4.7e-4,0.0308 5.1e-4,0.046 4e-5,0.0191 0,0.0378 0,0.0568 1e-5,0.0184 0,0.0369 0,0.0553 0,0.0154 -0.003,0.0287 -0.009,0.0419 -7e-5,1.5e-4 6e-5,3.6e-4 0,5.2e-4 l -0.007,0.28473 0.86765,2.3518 0.82165,-0.45682 -0.18655,-1.39992 c -3.9e-4,-0.001 -3e-4,-0.003 -5.2e-4,-0.004 l -0.0444,-0.33227 c -0.008,-0.0148 -0.0129,-0.0348 -0.0114,-0.0605 2.5e-4,-0.006 7.5e-4,-0.0124 10e-4,-0.0186 l -0.0775,-0.58188 c 0,0 -0.11418,-1.46161 -0.0227,-3.03703 l 0.0227,-1.23248 z" />
    <path
       id="path151"
       style="display:inline;fill:#4d4d4d;stroke-width:0.264583"
       d="m 79.853817,58.995688 v 0.38809 c 0.28285,1.59281 0.32203,2.70961 0.31575,3.30109 7.5e-4,0.004 0.002,0.007 0.002,0.0114 0.004,0.0308 0.006,0.062 0.008,0.093 0.002,0.0346 0.003,0.0692 0.003,0.10387 -7e-4,0.0367 -0.008,0.0723 -0.0134,0.10852 -0.004,0.0296 -0.006,0.0596 -0.007,0.0894 -0.002,0.033 -0.004,0.0662 -0.007,0.0992 0.0252,0.0973 1.04686,4.02767 1.15962,0.57722 0.11416,-3.4933 -0.27389,-4.72632 -0.27389,-4.72632 z" />
    <path
       id="path148"
       style="display:inline;fill:#000000;fill-opacity:1;stroke-width:0.264583"
       d="m 77.435367,62.423898 c -0.14695,-10e-4 -0.31424,0.0184 -0.47698,0.0786 -7.6e-4,0.003 -0.002,0.006 -0.003,0.008 -0.003,0.008 -0.005,0.0167 -0.007,0.0253 -0.004,0.013 -0.006,0.0265 -0.009,0.0398 2e-5,1.7e-4 -1e-5,3.5e-4 0,5.2e-4 0.001,0.0132 0.001,0.0265 5.2e-4,0.0398 0,0.0153 -0.001,0.0308 -0.003,0.046 -0.003,0.0204 -0.009,0.0402 -0.0129,0.0605 -0.003,0.011 -0.005,0.022 -0.007,0.0331 -9e-5,0.008 -1.7e-4,0.0159 -5.2e-4,0.0238 -0.001,0.0202 -0.002,0.0404 -0.005,0.0605 -9e-4,0.006 -0.002,0.011 -0.003,0.0165 -0.17846,2.94423 -0.38861,3.37705 -0.38861,3.37705 l -0.68471,1.64383 4.36046,-0.47956 c 0,0 2.12348,5.95916 1.59835,1.7353 -0.1781,-1.4333 -0.27044,-2.56325 -0.31626,-3.44269 -0.0151,-0.0805 -0.029,-0.16139 -0.0367,-0.24288 -0.01,-0.0967 -0.0177,-0.19332 -0.0227,-0.29042 -0.005,-0.0936 -0.0121,-0.18735 -0.0124,-0.28112 -1e-5,-0.0236 -2e-5,-0.0472 0,-0.0708 -0.001,-0.006 -0.002,-0.012 -0.003,-0.0181 -0.0109,-0.064 -0.0172,-0.12857 -0.0222,-0.19327 -0.005,-0.0678 -0.0105,-0.13528 -0.0145,-0.20308 -0.004,-0.0777 -0.009,-0.15525 -0.0119,-0.23307 -0.004,-0.11114 -0.004,-0.22266 -0.002,-0.33383 8.3e-4,-0.0306 0.002,-0.0613 0.003,-0.092 -0.003,-0.0956 -0.003,-0.19121 -0.004,-0.2868 -2.7e-4,-0.01 -3.6e-4,-0.0189 -5.2e-4,-0.0284 -0.002,-0.0193 -0.003,-0.0387 -0.007,-0.0579 -0.002,-0.0282 -0.006,-0.0564 -0.007,-0.0847 -0.002,-0.0257 -0.004,-0.0512 -0.004,-0.077 v -0.005 l -1.17512,-0.0372 c -0.002,0.019 -0.003,0.0379 -0.005,0.0568 -0.002,0.0409 -0.008,0.0811 -0.0108,0.12196 -0.007,0.0477 -0.0137,0.0956 -0.0207,0.14314 -0.007,0.0443 -0.0136,0.0884 -0.0196,0.13281 -0.003,0.0224 -0.007,0.0448 -0.0103,0.0672 -9.2e-4,0.0326 -0.002,0.065 -0.004,0.0977 -0.003,0.0505 -0.007,0.10128 -0.0145,0.15141 -0.001,0.007 -0.003,0.0134 -0.004,0.0202 -8.3e-4,0.0112 -10e-4,0.0224 -0.002,0.0336 l -0.003,0.0486 c -0.001,0.0144 -6.2e-4,0.029 -0.002,0.0434 -0.001,0.0134 -0.002,0.0269 -0.003,0.0403 -0.001,0.0115 -0.002,0.0232 -0.004,0.0346 -0.002,0.01 -0.003,0.0196 -0.004,0.0295 -2.8e-4,0.002 -10e-4,0.005 -0.002,0.007 v 5.2e-4 c -3.7e-4,0.0108 -4.1e-4,0.0217 -5.2e-4,0.0326 -1.5e-4,0.009 -3e-5,0.0187 -5.2e-4,0.0279 -0.001,0.008 -0.002,0.0169 -0.002,0.0253 0,0.008 -0.001,0.0151 -0.002,0.0227 -8.8e-4,0.009 -0.004,0.0151 -0.008,0.0181 0.006,0.87131 -0.20464,1.2609 -0.20464,1.2609 -0.50227,-0.0685 -0.54829,-0.22841 -0.54829,-0.22841 l -0.76119,-1.89239 c -0.001,0.0165 -0.006,0.031 -0.015,0.046 -0.009,0.0139 -0.022,0.0253 -0.0377,0.031 -0.006,0.0141 -0.0252,0.0215 -0.0517,0.008 -0.0112,-0.006 -0.021,-0.0126 -0.03,-0.0217 -0.0162,-0.0155 -0.0348,-0.0291 -0.0481,-0.0475 -0.0128,-0.0166 -0.023,-0.035 -0.0351,-0.0522 -0.0147,-0.0197 -0.0271,-0.0404 -0.0331,-0.0646 -0.006,-0.0217 -0.0131,-0.0434 -0.017,-0.0656 -0.003,-0.0148 -0.006,-0.0296 -0.009,-0.0444 -0.005,-0.0113 -0.0106,-0.0222 -0.0155,-0.0336 -0.0139,-0.0338 -0.0287,-0.0672 -0.0393,-0.10232 -0.01,-0.0336 -0.0194,-0.0672 -0.0274,-0.10128 -0.0103,-0.036 -0.0205,-0.0723 -0.0305,-0.10852 -0.0103,-0.0371 -0.0183,-0.0747 -0.0253,-0.11266 -0.006,-0.0306 -0.01,-0.0618 -0.0103,-0.093 -10e-6,-0.0267 -4.3e-4,-0.0534 -5.2e-4,-0.0801 -4e-5,-0.0102 6e-5,-0.0204 0,-0.0305 -0.1304,-0.16142 -0.20567,-0.0884 -0.20567,-0.0884 0,0 -0.19611,-0.0629 -0.45475,-0.0651 z" />
    <path
       id="path154"
       style="display:inline;fill:#4d4d4d;fill-opacity:1;stroke-width:0.264583"
       d="m 78.822877,52.944888 -1.07745,0.0181 c -1.7e-4,3.5e-4 -3.5e-4,6.9e-4 -5.2e-4,10e-4 -0.0289,0.056 -0.0581,0.11245 -0.0956,0.1633 -0.0239,0.0359 -0.047,0.0722 -0.0703,0.10852 -0.0183,0.0271 -0.0373,0.0535 -0.0548,0.0811 -0.006,0.009 -0.0134,0.0183 -0.0202,0.0274 -0.0353,0.0771 -0.0715,0.15384 -0.10697,0.23099 -0.0506,0.11238 -0.0952,0.22767 -0.12919,0.34624 -0.0165,0.0613 -0.0207,0.0744 -0.0346,0.13694 -0.0218,0.098 -0.0376,0.19728 -0.0548,0.29611 -0.0235,0.13622 -0.0516,0.27165 -0.0729,0.40824 -0.009,0.0616 -0.0162,0.12313 -0.0233,0.185 -9.1e-4,0.0436 -0.002,0.0872 -0.004,0.13074 -0.001,0.0366 -0.002,0.073 -0.004,0.10956 -7e-4,0.0214 -0.003,0.0428 -0.005,0.0641 6.9e-4,0.01 0.002,0.0195 0.002,0.0222 7.3e-4,0.0348 0.001,0.0695 0.001,0.10438 1.5e-4,0.0454 -3e-5,0.091 0,0.13643 5.5e-4,0.0323 -0.001,0.0644 -0.002,0.0966 0.002,0.0456 0.003,0.0913 0.003,0.13694 -9.8e-4,0.0447 -10e-4,0.0892 -0.002,0.13384 0.0869,1.00779 0.11764,1.16482 0.27181,3.84318 0.18265,3.17357 0.8444,-0.38809 0.8444,-0.38809 l 0.93637,-0.13694 0.0222,-0.91364 c -0.0127,-0.002 -0.0257,-0.004 -0.0382,-0.007 -0.009,-0.002 -0.0184,-0.004 -0.0274,-0.006 -0.009,-0.002 -0.0179,-0.004 -0.0269,-0.007 -0.008,-0.002 -0.0168,-0.004 -0.0248,-0.007 -0.007,-0.002 -0.0131,-0.004 -0.0202,-0.007 -9.1e-4,-2.6e-4 -0.002,-2.8e-4 -0.003,-5.2e-4 -0.004,-5.8e-4 -0.008,-0.001 -0.0124,-0.002 -0.0102,-0.002 -0.0205,-0.005 -0.0305,-0.008 -0.008,-0.002 -0.0165,-0.006 -0.0243,-0.009 -0.1886,-0.0405 -0.47765,-0.14792 -0.70746,-0.44958 -0.20619,-0.27078 -0.24935,-0.99955 -0.14676,-1.78801 -5e-4,-0.0253 -7.6e-4,-0.0507 -0.002,-0.076 -4e-4,-0.0385 0.007,-0.0758 0.0124,-0.11369 0.005,-0.0366 0.005,-0.0738 0.008,-0.11058 0.004,-0.0458 0.007,-0.0915 0.009,-0.13746 10e-4,-0.0529 0.002,-0.10587 0.005,-0.15865 0.002,-0.0526 0.008,-0.10493 0.015,-0.1571 0.007,-0.0601 0.0117,-0.12017 0.0217,-0.17983 0.007,-0.0446 0.0152,-0.0892 0.0227,-0.13384 2.2e-4,-0.009 -1.7e-4,-0.0186 5.2e-4,-0.0279 10e-4,-0.0262 0.004,-0.052 0.007,-0.078 0.004,-0.0241 0.007,-0.0481 0.0124,-0.0718 0.006,-0.0271 0.0127,-0.0541 0.0207,-0.0806 1.9e-4,-6.9e-4 3.2e-4,-0.001 5.1e-4,-0.002 10e-4,-0.0171 0.003,-0.0342 0.006,-0.0512 0.005,-0.028 0.0121,-0.0552 0.0191,-0.0827 0.008,-0.0293 0.0191,-0.0575 0.03,-0.0858 7.1e-4,-0.003 -3.5e-4,-0.005 0.002,-0.008 0.006,-0.0202 0.0126,-0.0404 0.0186,-0.0605 0.007,-0.0198 0.0147,-0.0396 0.0217,-0.0594 0.005,-0.0136 0.01,-0.0267 0.0155,-0.0403 0.004,-0.013 0.008,-0.0263 0.015,-0.0388 0.005,-0.0112 0.01,-0.0218 0.0155,-0.0326 0.005,-0.009 0.0108,-0.0182 0.0155,-0.0274 4e-4,-0.001 1.7e-4,-0.002 0.002,-0.004 0.0203,-0.0614 0.0524,-0.1168 0.0868,-0.17105 0.0337,-0.0533 0.0715,-0.10309 0.10852,-0.154 0.0326,-0.0459 0.0674,-0.0901 0.10284,-0.13384 0.0315,-0.0373 0.0635,-0.0751 0.0987,-0.10904 10e-4,-10e-4 0.003,-0.002 0.005,-0.003 0.005,-0.005 0.0107,-0.0103 0.016,-0.0155 9.7e-4,-9.4e-4 0.002,-0.002 0.003,-0.003 v -5.1e-4 c 0.003,-0.005 0.006,-0.009 0.0103,-0.0129 0.005,-0.005 0.0105,-0.01 0.0155,-0.014 0.005,-0.004 0.0101,-0.009 0.0155,-0.0129 3e-4,-3.4e-4 9.9e-4,-9.4e-4 0.001,-10e-4 10e-4,-10e-4 0.002,-0.002 0.003,-0.004 0.004,-0.004 0.007,-0.007 0.0103,-0.0108 0.002,-0.002 0.004,-0.003 0.006,-0.005 v -5.2e-4 c 0.13267,-0.49322 -0.0342,-0.58289 -0.0362,-0.58394 z" />
    <path
       id="path155"
       style="display:inline;fill:#4d4d4d;fill-opacity:1;stroke-width:0.264583"
       d="m 80.099287,52.922668 -1.0449,0.13643 0.19534,0.35605 c 0.0211,0.0107 0.0405,0.0254 0.0584,0.0429 0.0277,0.029 0.0481,0.0636 0.0698,0.0971 0.0237,0.0381 0.0424,0.079 0.063,0.11885 0.0261,0.0452 0.0521,0.0905 0.076,0.13695 0.0286,0.056 0.0501,0.11512 0.0754,0.1726 0.0285,0.0661 0.0616,0.12979 0.0889,0.19637 0.025,0.0654 0.0462,0.13234 0.0708,0.19792 0.0254,0.065 0.0437,0.13212 0.0594,0.19999 0.0151,0.0738 0.0225,0.14897 0.0305,0.22375 0.01,0.0771 0.0146,0.1545 0.0176,0.23203 0.002,0.0718 0.005,0.14359 0.0129,0.21498 0.009,0.0726 0.0146,0.14551 0.0186,0.21859 0.24818,1.92373 0.008,2.47788 0.008,2.47788 -0.21749,0.24856 -0.4742,0.3162 -0.61805,0.33487 -0.003,6.7e-4 -0.006,0.001 -0.009,0.002 -0.003,5.1e-4 -0.007,10e-4 -0.01,0.002 -0.008,10e-4 -0.0161,0.002 -0.0243,0.003 -0.0134,10e-4 -0.0269,0.003 -0.0403,0.004 -0.01,2.8e-4 -0.0196,4.4e-4 -0.0294,0 l -0.27337,1.00303 2.16886,0.43357 -0.0997,-4.98419 c -0.006,-0.0596 -0.0134,-0.11894 -0.0217,-0.17829 -0.009,-0.0667 -0.0209,-0.13333 -0.0336,-0.19947 -0.0132,-0.0679 -0.028,-0.13525 -0.0439,-0.20257 -0.0123,-0.0526 -0.0254,-0.10497 -0.046,-0.15503 -0.0153,-0.0406 -0.0315,-0.0809 -0.0481,-0.12092 -0.0116,-0.0281 -0.0229,-0.0562 -0.0346,-0.0842 l -5.2e-4,-5.2e-4 c -0.0149,-0.0198 -0.0287,-0.0403 -0.0424,-0.061 -0.0172,-0.0283 -0.0323,-0.0579 -0.0475,-0.0873 l -0.17157,-0.23254 c -3.7e-4,-3.1e-4 -6.6e-4,-7.2e-4 -0.001,-10e-4 -0.0385,-0.0322 -0.074,-0.0681 -0.11007,-0.10284 -0.0395,-0.0402 -0.0757,-0.0832 -0.11111,-0.12712 -0.0291,-0.0364 -0.0594,-0.0719 -0.0832,-0.11214 -0.0152,-0.0255 -0.0292,-0.0519 -0.0403,-0.0796 -0.01,-0.0218 -0.0194,-0.0435 -0.0264,-0.0662 -9.2e-4,-0.003 -0.002,-0.005 -0.003,-0.008 z" />
    <path
       id="path156"
       style="display:inline;fill:#4d4d4d;fill-opacity:1;stroke-width:0.264583"
       d="m 77.807437,52.835338 c -0.003,0.004 -0.006,0.009 -0.009,0.0129 -0.0159,0.0395 -0.0343,0.0776 -0.0532,0.11575 -0.0289,0.056 -0.0581,0.11245 -0.0956,0.1633 -0.0239,0.0359 -0.047,0.0722 -0.0703,0.10852 -0.0183,0.0271 -0.0373,0.0535 -0.0548,0.0811 -0.006,0.009 -0.0131,0.0175 -0.0196,0.0264 -0.0183,0.0403 -0.0364,0.0808 -0.0553,0.12093 l 1.05782,0.39377 c 0,0 0.1204,-0.15197 0.31006,-0.28835 0.001,-10e-4 0.003,-0.002 0.004,-0.004 0.001,-10e-4 0.002,-0.002 0.004,-0.003 0.003,-0.003 0.007,-0.005 0.0119,-0.008 4.3e-4,-4.7e-4 -2.8e-4,-5.5e-4 0,-0.002 0.002,-0.002 0.005,-0.005 0.007,-0.008 0.004,-0.004 0.007,-0.007 0.0108,-0.0108 0.004,-0.003 0.006,-0.007 0.0103,-0.009 0.002,-0.002 0.004,-0.004 0.007,-0.006 0.017,-0.0204 0.0347,-0.0397 0.0548,-0.0574 0.0336,-0.0316 0.0753,-0.0456 0.11937,-0.0553 0.0341,-0.007 0.0683,-0.011 0.10284,-0.0114 0.002,-2e-5 0.003,-1e-5 0.005,0 0.12477,-0.0381 0.26096,-0.0506 0.40307,-0.0165 0.57078,0.13699 0.54829,0.93586 0.54829,0.93586 l 0.19895,-1.06247 c -0.018,-0.0208 -0.0354,-0.0421 -0.0527,-0.0636 -0.0291,-0.0364 -0.0594,-0.0719 -0.0832,-0.11214 -0.0152,-0.0255 -0.0292,-0.0519 -0.0403,-0.0796 -0.01,-0.0218 -0.0194,-0.0434 -0.0264,-0.0661 -0.006,-0.0178 -0.0116,-0.0361 -0.0176,-0.0537 -4.7e-4,-10e-4 -0.001,-0.003 -0.002,-0.005 z m 2.50165,0.0413 c 5.3e-4,10e-4 10e-4,0.003 0.002,0.004 v -0.004 z" />
    <path
       id="path157"
       style="display:inline;fill:#4d4d4d;fill-opacity:1;stroke-width:0.264583"
       d="m 77.895797,48.093508 c 0.15277,0.19442 0.26367,0.39752 0.34572,0.59686 0.009,0.0167 0.019,0.0335 0.0284,0.0501 0.0238,0.0445 0.0372,0.0671 0.0584,0.11318 0.0246,0.0536 0.0447,0.10895 0.0636,0.16484 0.0121,0.0225 0.024,0.0452 0.0362,0.0677 0.008,0.0155 0.0157,0.0309 0.0227,0.0465 0.0309,0.0668 0.0531,0.13718 0.0734,0.20774 0.0204,0.0748 0.0404,0.14976 0.0532,0.22634 0.001,0.007 0.002,0.0141 0.004,0.0212 0.0484,0.1692 0.0846,0.342 0.0935,0.51831 0.001,0.0359 0.003,0.0716 0.003,0.10749 0.001,0.17801 -0.014,0.35587 -0.0258,0.5333 -0.0217,0.21345 -0.0517,0.42645 -0.11162,0.63303 -0.0243,0.0841 -0.0307,0.11395 -0.0584,0.19689 -0.0447,0.13347 -0.0967,0.26445 -0.14832,0.39533 -0.0141,0.0318 -0.028,0.0641 -0.0429,0.0956 -0.0692,0.1463 -0.15148,0.28675 -0.23978,0.4222 -0.0811,0.12166 -0.16438,0.24171 -0.25218,0.35864 -0.0158,0.0392 -0.0339,0.0773 -0.0527,0.11523 -0.0289,0.056 -0.0581,0.11245 -0.0956,0.1633 -0.0239,0.0359 -0.0475,0.0722 -0.0708,0.10852 -0.003,0.005 -0.007,0.01 -0.0103,0.015 l 2.00556,-0.0879 c 0,0 1.3563,3.4869 0.51677,-0.22634 -0.0105,-0.0463 -0.0191,-0.0908 -0.0284,-0.13591 -0.003,-0.0112 -0.006,-0.0223 -0.009,-0.0336 -0.004,-0.0179 -0.007,-0.0358 -0.0103,-0.0537 -10e-4,-0.007 -0.002,-0.0138 -0.004,-0.0207 -5.2e-4,-0.002 -9e-4,-0.005 -0.002,-0.008 -5.9e-4,-0.003 -5.5e-4,-0.006 -0.002,-0.009 -0.002,-0.007 -0.005,-0.0141 -0.007,-0.0212 -0.007,-0.0265 -0.0151,-0.053 -0.0191,-0.0801 -0.004,-0.0228 -0.007,-0.0456 -0.008,-0.0687 -0.63143,-3.3695 0.76636,-4.41265 0.76636,-4.41265 z" />
    <path
       id="path174"
       style="display:inline;fill:#4d4d4d;fill-opacity:1;stroke-width:0.264583"
       d="m 78.946387,58.241728 c 0,0 -0.0476,0.16639 -0.0444,0.17053 0.003,0.004 0.42685,0.0879 0.42685,0.0879 l -0.10542,-0.19534 -0.0444,-0.0155 c -0.0109,-6e-5 -0.0216,-3.5e-4 -0.0326,-0.002 -0.0128,-0.002 -0.0261,-0.004 -0.0388,-0.007 -0.009,-0.002 -0.0184,-0.004 -0.0274,-0.006 -0.009,-0.002 -0.0174,-0.004 -0.0264,-0.007 -0.008,-0.002 -0.0168,-0.004 -0.0248,-0.007 -0.007,-0.002 -0.0132,-0.004 -0.0202,-0.007 -8.9e-4,-3.6e-4 -0.003,-7.4e-4 -0.004,-10e-4 -1.7e-4,-2e-5 -3.5e-4,3e-5 -5.2e-4,0 -3.7e-4,-7e-5 -1.5e-4,8e-5 -5.2e-4,0 -0.004,-5.1e-4 -0.007,-9e-4 -0.0109,-0.002 -0.005,-10e-4 -0.0104,-0.002 -0.0155,-0.004 -3.9e-4,-1e-4 -6.5e-4,-4.1e-4 -0.001,-5.1e-4 -0.01,-0.002 -0.03,-0.006 -0.03,-0.006 z" />
    <path
       style="display:inline;fill:#4d4d4d;fill-opacity:1;stroke-width:0.264583"
       d="m 79.093147,53.398608 c 0,0 0.15089,-0.0227 0.22221,0.0641 0.0713,0.0868 0.0237,-0.14676 0.0237,-0.14676 l -0.31936,-0.0207 z"
       id="path187" />
    <path
       style="display:inline;fill:#000000;fill-opacity:1;stroke-width:0.264583"
       d="m 78.505067,63.505488 c 1.38906,-0.0165 1.38906,-0.0331 1.38906,-0.0331 l 0.23151,1.4056 -0.38034,1.55443 -1.88515,-0.84336 z"
       id="path254" />
    <path
       style="display:inline;fill:#000000;fill-opacity:1;stroke-width:0.264583"
       d="m 78.523107,63.463348 0.0175,-0.88282 h 1.28039 c 0,0 0.006,0.45018 0.13447,1.35639 0.12862,0.90621 -1.4324,-0.47357 -1.4324,-0.47357 z"
       id="path255" />
    <path
       style="display:inline;fill:#000000;fill-opacity:1;stroke-width:0.264583"
       d="m 80.171827,62.592218 1.16345,0.0117 0.0234,1.12253 -1.22192,-0.33325 c 0,0 0.0585,-0.37418 0.0351,-0.80097 z"
       id="path256"
       inkscape:label="path256" />
  </g>
</svg>
